<?xml version="1.0" encoding="UTF-8" standalone="no"?>
<!-- Created with Inkscape (http://www.inkscape.org/) -->

<svg
   xmlns:dc="http://purl.org/dc/elements/1.1/"
   xmlns:cc="http://creativecommons.org/ns#"
   xmlns:rdf="http://www.w3.org/1999/02/22-rdf-syntax-ns#"
   xmlns:svg="http://www.w3.org/2000/svg"
   xmlns="http://www.w3.org/2000/svg"
   xmlns:sodipodi="http://sodipodi.sourceforge.net/DTD/sodipodi-0.dtd"
   xmlns:inkscape="http://www.inkscape.org/namespaces/inkscape"
   width="210mm"
   height="297mm"
   viewBox="0 0 210 297"
   version="1.1"
   id="svg8"
   inkscape:version="0.92.3 (2405546, 2018-03-11)"
   sodipodi:docname="character.svg">
  <defs
     id="defs2" />
  <sodipodi:namedview
     id="base"
     pagecolor="#ffffff"
     bordercolor="#666666"
     borderopacity="1.0"
     inkscape:pageopacity="0.0"
     inkscape:pageshadow="2"
     inkscape:zoom="0.5"
     inkscape:cx="-179.99997"
     inkscape:cy="1395.0394"
     inkscape:document-units="px"
     inkscape:current-layer="layer1"
     showgrid="false"
     showborder="false"
     inkscape:window-width="1366"
     inkscape:window-height="705"
     inkscape:window-x="-8"
     inkscape:window-y="-8"
     inkscape:window-maximized="1"
     showguides="false" />
  <metadata
     id="metadata5">
    <rdf:RDF>
      <cc:Work
         rdf:about="">
        <dc:format>image/svg+xml</dc:format>
        <dc:type
           rdf:resource="http://purl.org/dc/dcmitype/StillImage" />
        <dc:title />
      </cc:Work>
    </rdf:RDF>
  </metadata>
  <g
     inkscape:label="Layer 1"
     inkscape:groupmode="layer"
     id="layer1">
    <path
       style="fill:#82b0b0;fill-opacity:1;stroke-width:6.61458335;stroke:#6e8383;stroke-opacity:1;stroke-miterlimit:4;stroke-dasharray:none"
       d="m -190.20987,-266.18454 c 20.00813,-19.60997 167.014521,-16.41973 182.4092594,0 13.5131552,14.41287 18.4289226,141.26606 0,160.2619 -15.2399754,15.708793 -169.7571294,13.47048 -182.4092594,0 -11.91887,-12.68978 -18.35371,-142.27343 0,-160.2619 z"
       id="rect4527"
       inkscape:connector-curvature="0"
       sodipodi:nodetypes="sssss" />
    <path
       sodipodi:nodetypes="sssss"
       inkscape:connector-curvature="0"
       id="path4608"
       d="m -183.88291,-256.65027 c 18.27907,-15.79075 152.581502,-13.22183 166.645863,0 12.3453787,11.60583 16.83633596,113.75315 0,129.04936 -13.922972,12.64936 -155.087093,10.84697 -166.645863,0 -10.88886,-10.21832 -16.76762,-114.56431 0,-129.04936 z"
       style="fill:#b0d2d2;fill-opacity:1;stroke-width:0.20558982" />
    <g
       id="g4606">
      <path
         sodipodi:nodetypes="cssccc"
         inkscape:connector-curvature="0"
         id="rect4530"
         d="m -140.9372,-226.11905 c 0,0 141.47447144,-31.34805 156.646097,-15.87499 14.789259,15.08309 12.206861,105.11731 0,118.68452 -15.9593128,17.73784 -156.646097,-14.36311 -156.646097,-14.36311 l -38.82099,-44.97916 z"
         style="fill:#b0d2d2;fill-opacity:1;stroke-width:0.25113723" />
      <path
         sodipodi:nodetypes="cc"
         inkscape:connector-curvature="0"
         id="path4537"
         d="m -12.214967,-224.60714 c 18.5700318,34.51926 10.7209143,64.81523 0.68107,84.66667"
         style="fill:none;stroke:#000000;stroke-width:13.81254864;stroke-linecap:round;stroke-linejoin:round;stroke-miterlimit:4;stroke-dasharray:none;stroke-opacity:1" />
      <path
         inkscape:connector-curvature="0"
         id="path4549"
         d="m -179.56218,-182.42504 38.62505,44.75231 c 0,0 140.6867189,32.1013 156.646032,14.36346 6.130067,-6.81321 9.831653,-32.91076 10.12626,-59.11577 z"
         style="fill:#82b0b0;fill-opacity:1;stroke-width:0.25113723" />
      <path
         inkscape:connector-curvature="0"
         id="path4584"
         d="m -6.925967,-246.28264 c -44.17375,0.25721 -134.011163,20.16363 -134.011163,20.16363 l -20.98068,23.49159 a 20.772636,21.922619 0 0 0 -7.28392,-1.42059 20.772636,21.922619 0 0 0 -20.77257,21.92269 20.772636,21.922619 0 0 0 20.77257,21.9227 20.772636,21.922619 0 0 0 7.53161,-1.4919 l 20.73299,24.02179 c 0,0 140.6867189,32.1013 156.646032,14.36346 12.20686,-13.56721 14.789259,-103.60165 0,-118.68474 -3.081737,-3.14297 -11.3748932,-4.35419 -22.634869,-4.28863 z"
         style="fill:none;fill-opacity:1;stroke:#6e8383;stroke-width:7.53411722;stroke-miterlimit:4;stroke-dasharray:none;stroke-opacity:1" />
      <ellipse
         ry="21.393452"
         rx="18.388891"
         cy="-182.12527"
         cx="-171.10858"
         id="path4533"
         style="fill:#b0d2d2;fill-opacity:1;stroke:none;stroke-width:0.18526895" />
      <ellipse
         style="fill:#6d8b8b;fill-opacity:1;stroke-width:0.08879042"
         id="ellipse4535"
         cx="-170.56375"
         cy="-182.12527"
         rx="9.1944466"
         ry="9.8273811" />
      <path
         style="fill:none;stroke:#6e8383;stroke-width:13.81254864;stroke-linecap:round;stroke-linejoin:round;stroke-miterlimit:4;stroke-dasharray:none;stroke-opacity:1"
         d="m -12.214966,-224.60714 c 18.5700317,34.51926 10.7209143,64.81523 0.68107,84.66667"
         id="path4539"
         inkscape:connector-curvature="0"
         sodipodi:nodetypes="cc" />
      <path
         sodipodi:nodetypes="cc"
         inkscape:connector-curvature="0"
         id="path4545"
         d="m -42.580938,-211.38497 c 7.945847,22.26622 5.521448,42.2633 -0.0063,58.12529"
         style="fill:none;stroke:#6e8383;stroke-width:13.81254864;stroke-linecap:round;stroke-linejoin:round;stroke-miterlimit:4;stroke-dasharray:none;stroke-opacity:1" />
      <path
         style="fill:none;stroke:#6e8383;stroke-width:13.81254864;stroke-linecap:round;stroke-linejoin:round;stroke-miterlimit:4;stroke-dasharray:none;stroke-opacity:1"
         d="m -75.731259,-199.25955 c 2.940536,13.97633 2.007946,26.84445 -0.774769,38.0849"
         id="path4547"
         inkscape:connector-curvature="0"
         sodipodi:nodetypes="cc" />
    </g>
    <path
       style="fill:#82b0b0;fill-opacity:1;stroke:#6e8383;stroke-width:6.61458302;stroke-linecap:round;stroke-linejoin:round;stroke-miterlimit:4;stroke-dasharray:none;stroke-opacity:1"
       d="m -127.52917,-87.704164 c 0,0 54.599522,-16.837986 71.437503,0 C -25.2844,-56.896897 -68.2625,43.529166 -68.2625,43.529166 l -59.26667,-0.529167 c 20.04834,-27.164869 10.30667,-78.703383 0,-130.704163 z"
       id="rect832"
       inkscape:connector-curvature="0"
       sodipodi:nodetypes="csccc" />
    <path
       sodipodi:nodetypes="csccc"
       inkscape:connector-curvature="0"
       id="path837"
       d="m -125.4125,-88.382541 c 0,0 48.08572,-6.712682 56.550495,2.645833 15.487402,17.1226 -11.1125,128.736707 -11.1125,128.736707 h -44.379665 c 10.07868,-15.098165 4.12303,-102.480639 -1.05833,-131.38254 z"
       style="fill:#b0d2d2;fill-opacity:1;stroke:none;stroke-width:3.49641871;stroke-linecap:round;stroke-linejoin:round;stroke-miterlimit:4;stroke-dasharray:none;stroke-opacity:1" />
    <path
       sodipodi:nodetypes="csccc"
       inkscape:connector-curvature="0"
       id="path839"
       d="m -127.52917,-87.704164 c 0,0 54.599522,-16.837986 71.437503,0 C -25.2844,-56.896897 -68.2625,43.529166 -68.2625,43.529166 l -59.26667,-0.529167 c 20.04834,-27.164869 10.30667,-78.703383 0,-130.704163 z"
       style="fill:none;fill-opacity:1;stroke:#6e8383;stroke-width:6.61458302;stroke-linecap:round;stroke-linejoin:round;stroke-miterlimit:4;stroke-dasharray:none;stroke-opacity:1" />
    <rect
       style="fill:none;fill-opacity:1;stroke:#6e8383;stroke-width:6.61458302;stroke-linecap:round;stroke-linejoin:round;stroke-miterlimit:4;stroke-dasharray:none;stroke-opacity:1"
       id="rect835"
       width="33.337498"
       height="54.504166"
       x="49.212498"
       y="-82.941666" />
  </g>
</svg>
